<svg width="187" height="50" viewBox="0 0 187 50" fill="none" xmlns="http://www.w3.org/2000/svg">
<path d="M0.971719 24C0.801052 24 0.641052 23.936 0.491719 23.808C0.363719 23.6587 0.299719 23.4987 0.299719 23.328C0.299719 23.2213 0.310385 23.1253 0.331719 23.04L7.85172 2.496C7.91572 2.26133 8.04372 2.05867 8.23572 1.888C8.44905 1.696 8.73705 1.6 9.09972 1.6H13.8357C14.1984 1.6 14.4757 1.696 14.6677 1.888C14.8811 2.05867 15.0197 2.26133 15.0837 2.496L22.5717 23.04C22.6144 23.1253 22.6357 23.2213 22.6357 23.328C22.6357 23.4987 22.5611 23.6587 22.4117 23.808C22.2837 23.936 22.1237 24 21.9317 24H17.9957C17.6757 24 17.4304 23.9253 17.2597 23.776C17.1104 23.6053 17.0144 23.456 16.9717 23.328L15.7237 20.064H7.17972L5.96372 23.328C5.92105 23.456 5.82505 23.6053 5.67572 23.776C5.52639 23.9253 5.27039 24 4.90772 24H0.971719ZM8.49172 15.456H14.4437L11.4357 7.008L8.49172 15.456Z" fill="#F8BD78"/>
<path d="M31.014 24.32C29.99 24.32 29.062 24.16 28.23 23.84C27.4193 23.4987 26.7153 23.008 26.118 22.368C25.542 21.7067 25.094 20.9173 24.774 20C24.454 19.0613 24.2726 17.9947 24.23 16.8C24.2086 16.3733 24.198 16 24.198 15.68C24.198 15.3387 24.2086 14.9653 24.23 14.56C24.2726 13.408 24.454 12.3733 24.774 11.456C25.094 10.5387 25.542 9.74933 26.118 9.088C26.694 8.42667 27.398 7.92533 28.23 7.584C29.062 7.22133 29.99 7.04 31.014 7.04C32.0806 7.04 32.998 7.22133 33.766 7.584C34.534 7.92533 35.1846 8.37333 35.718 8.928V2.08C35.718 1.84533 35.7926 1.65333 35.942 1.504C36.0913 1.35467 36.2833 1.28 36.518 1.28H40.422C40.6353 1.28 40.8166 1.35467 40.966 1.504C41.1366 1.65333 41.222 1.84533 41.222 2.08V23.2C41.222 23.4347 41.1366 23.6267 40.966 23.776C40.8166 23.9253 40.6353 24 40.422 24H36.806C36.5713 24 36.3793 23.9253 36.23 23.776C36.0806 23.6267 36.006 23.4347 36.006 23.2V22.176C35.494 22.7947 34.8326 23.3067 34.022 23.712C33.2113 24.1173 32.2086 24.32 31.014 24.32ZM32.742 20.032C33.4673 20.032 34.0326 19.8827 34.438 19.584C34.8646 19.264 35.174 18.8587 35.366 18.368C35.5793 17.8773 35.6966 17.344 35.718 16.768C35.7393 16.3413 35.75 15.936 35.75 15.552C35.75 15.168 35.7393 14.7733 35.718 14.368C35.6966 13.8347 35.5793 13.344 35.366 12.896C35.1526 12.4267 34.8326 12.0533 34.406 11.776C33.9793 11.4773 33.4246 11.328 32.742 11.328C32.038 11.328 31.4726 11.4773 31.046 11.776C30.6406 12.0747 30.3526 12.48 30.182 12.992C30.0113 13.504 29.9046 14.0693 29.862 14.688C29.798 15.3493 29.798 16.0107 29.862 16.672C29.9046 17.2907 30.0113 17.856 30.182 18.368C30.3526 18.88 30.6406 19.2853 31.046 19.584C31.4726 19.8827 32.038 20.032 32.742 20.032ZM50.9135 24C50.5935 24 50.3588 23.9253 50.2095 23.776C50.0601 23.6053 49.9321 23.4133 49.8255 23.2L43.7775 8.352C43.7348 8.26667 43.7135 8.17067 43.7135 8.064C43.7135 7.872 43.7775 7.712 43.9055 7.584C44.0548 7.43467 44.2361 7.36 44.4495 7.36H48.0655C48.3428 7.36 48.5561 7.43467 48.7055 7.584C48.8548 7.73333 48.9508 7.88267 48.9935 8.032L52.6095 17.856L56.2575 8.032C56.3001 7.88267 56.3961 7.73333 56.5455 7.584C56.6948 7.43467 56.9081 7.36 57.1855 7.36H60.8015C60.9935 7.36 61.1641 7.43467 61.3135 7.584C61.4628 7.712 61.5375 7.872 61.5375 8.064C61.5375 8.17067 61.5161 8.26667 61.4735 8.352L55.4255 23.2C55.3401 23.4133 55.2121 23.6053 55.0415 23.776C54.8921 23.9253 54.6468 24 54.3055 24H50.9135ZM71.0797 24.32C68.5624 24.32 66.5571 23.6373 65.0637 22.272C63.5704 20.9067 62.7917 18.88 62.7277 16.192C62.7277 16.0427 62.7277 15.8507 62.7277 15.616C62.7277 15.3813 62.7277 15.2 62.7277 15.072C62.7917 13.3867 63.1651 11.9467 63.8477 10.752C64.5517 9.536 65.5117 8.61867 66.7277 8C67.9651 7.36 69.4051 7.04 71.0477 7.04C72.9251 7.04 74.4717 7.41333 75.6877 8.16C76.9251 8.90667 77.8531 9.92 78.4717 11.2C79.0904 12.48 79.3997 13.9413 79.3997 15.584V16.352C79.3997 16.5867 79.3144 16.7787 79.1437 16.928C78.9944 17.0773 78.8131 17.152 78.5997 17.152H68.3597C68.3597 17.1733 68.3597 17.2053 68.3597 17.248C68.3597 17.2907 68.3597 17.3333 68.3597 17.376C68.3811 17.9947 68.4877 18.56 68.6797 19.072C68.8717 19.584 69.1704 19.9893 69.5757 20.288C69.9811 20.5867 70.4717 20.736 71.0477 20.736C71.4744 20.736 71.8264 20.672 72.1037 20.544C72.4024 20.3947 72.6477 20.2347 72.8397 20.064C73.0317 19.872 73.1811 19.712 73.2877 19.584C73.4797 19.3707 73.6291 19.2427 73.7357 19.2C73.8637 19.136 74.0557 19.104 74.3117 19.104H78.2797C78.4931 19.104 78.6637 19.168 78.7917 19.296C78.9411 19.4027 79.0051 19.5627 78.9837 19.776C78.9624 20.1387 78.7811 20.576 78.4397 21.088C78.0984 21.6 77.5971 22.112 76.9357 22.624C76.2957 23.1147 75.4851 23.52 74.5037 23.84C73.5224 24.16 72.3811 24.32 71.0797 24.32ZM68.3597 13.984H73.7677V13.92C73.7677 13.2373 73.6611 12.64 73.4477 12.128C73.2557 11.616 72.9464 11.2213 72.5197 10.944C72.1144 10.6667 71.6237 10.528 71.0477 10.528C70.4717 10.528 69.9811 10.6667 69.5757 10.944C69.1917 11.2213 68.8931 11.616 68.6797 12.128C68.4664 12.64 68.3597 13.2373 68.3597 13.92V13.984ZM83.1997 24C82.9651 24 82.7731 23.9253 82.6237 23.776C82.4744 23.6267 82.3997 23.4347 82.3997 23.2V8.16C82.3997 7.94667 82.4744 7.76533 82.6237 7.616C82.7731 7.44533 82.9651 7.36 83.1997 7.36H86.8797C87.1144 7.36 87.3064 7.44533 87.4557 7.616C87.6051 7.76533 87.6797 7.94667 87.6797 8.16V9.44C88.2557 8.77867 88.9384 8.26667 89.7277 7.904C90.5384 7.54133 91.4451 7.36 92.4477 7.36H93.8557C94.0691 7.36 94.2504 7.43467 94.3997 7.584C94.5704 7.73333 94.6557 7.92533 94.6557 8.16V11.456C94.6557 11.6693 94.5704 11.8613 94.3997 12.032C94.2504 12.1813 94.0691 12.256 93.8557 12.256H90.7517C89.8771 12.256 89.1944 12.5013 88.7037 12.992C88.2344 13.4613 87.9997 14.1333 87.9997 15.008V23.2C87.9997 23.4347 87.9144 23.6267 87.7437 23.776C87.5944 23.9253 87.4024 24 87.1677 24H83.1997ZM105.443 24C104.078 24 102.894 23.7867 101.891 23.36C100.91 22.912 100.152 22.2293 99.619 21.312C99.0856 20.3733 98.819 19.168 98.819 17.696V11.552H96.323C96.0883 11.552 95.8856 11.4773 95.715 11.328C95.5656 11.1787 95.491 10.9867 95.491 10.752V8.16C95.491 7.92533 95.5656 7.73333 95.715 7.584C95.8856 7.43467 96.0883 7.36 96.323 7.36H98.819V2.08C98.819 1.84533 98.8936 1.65333 99.043 1.504C99.2136 1.35467 99.4056 1.28 99.619 1.28H103.331C103.566 1.28 103.758 1.35467 103.907 1.504C104.056 1.65333 104.131 1.84533 104.131 2.08V7.36H108.131C108.366 7.36 108.558 7.43467 108.707 7.584C108.856 7.73333 108.931 7.92533 108.931 8.16V10.752C108.931 10.9867 108.856 11.1787 108.707 11.328C108.558 11.4773 108.366 11.552 108.131 11.552H104.131V17.248C104.131 17.9733 104.27 18.5493 104.547 18.976C104.824 19.4027 105.294 19.616 105.955 19.616H108.419C108.654 19.616 108.846 19.6907 108.995 19.84C109.144 19.9893 109.219 20.1813 109.219 20.416V23.2C109.219 23.4347 109.144 23.6267 108.995 23.776C108.846 23.9253 108.654 24 108.419 24H105.443ZM112.668 24C112.434 24 112.242 23.9253 112.092 23.776C111.943 23.6267 111.868 23.4347 111.868 23.2V8.16C111.868 7.92533 111.943 7.73333 112.092 7.584C112.242 7.43467 112.434 7.36 112.668 7.36H116.444C116.658 7.36 116.839 7.43467 116.988 7.584C117.159 7.73333 117.244 7.92533 117.244 8.16V23.2C117.244 23.4347 117.159 23.6267 116.988 23.776C116.839 23.9253 116.658 24 116.444 24H112.668ZM112.636 4.96C112.402 4.96 112.21 4.88533 112.06 4.736C111.911 4.58667 111.836 4.39467 111.836 4.16V1.312C111.836 1.07733 111.911 0.885332 112.06 0.735998C112.21 0.565332 112.402 0.48 112.636 0.48H116.444C116.679 0.48 116.871 0.565332 117.02 0.735998C117.191 0.885332 117.276 1.07733 117.276 1.312V4.16C117.276 4.39467 117.191 4.58667 117.02 4.736C116.871 4.88533 116.679 4.96 116.444 4.96H112.636ZM128.435 24.32C127.049 24.32 125.865 24.1707 124.883 23.872C123.923 23.552 123.134 23.168 122.515 22.72C121.918 22.272 121.47 21.8133 121.171 21.344C120.873 20.8533 120.713 20.4373 120.691 20.096C120.67 19.8613 120.745 19.6693 120.915 19.52C121.086 19.3493 121.267 19.264 121.459 19.264H125.107C125.171 19.264 125.225 19.2747 125.267 19.296C125.31 19.3173 125.374 19.36 125.459 19.424C125.737 19.5733 126.014 19.7653 126.291 20C126.569 20.2133 126.889 20.4053 127.251 20.576C127.614 20.7467 128.051 20.832 128.563 20.832C129.161 20.832 129.662 20.7147 130.067 20.48C130.473 20.2453 130.675 19.8933 130.675 19.424C130.675 19.0827 130.579 18.8053 130.387 18.592C130.195 18.3573 129.801 18.1333 129.203 17.92C128.627 17.7067 127.753 17.4933 126.579 17.28C125.47 17.024 124.499 16.6933 123.667 16.288C122.835 15.8613 122.195 15.3173 121.747 14.656C121.299 13.9733 121.075 13.152 121.075 12.192C121.075 11.3387 121.353 10.5173 121.907 9.728C122.462 8.93867 123.273 8.29867 124.339 7.808C125.406 7.296 126.718 7.04 128.275 7.04C129.513 7.04 130.579 7.18933 131.475 7.488C132.393 7.76533 133.161 8.128 133.779 8.576C134.419 9.024 134.899 9.48267 135.219 9.952C135.539 10.4213 135.71 10.848 135.731 11.232C135.753 11.4453 135.689 11.6373 135.539 11.808C135.39 11.9573 135.219 12.032 135.027 12.032H131.699C131.614 12.032 131.529 12.0213 131.443 12C131.358 11.9573 131.283 11.9147 131.219 11.872C130.963 11.744 130.707 11.5733 130.451 11.36C130.195 11.1467 129.897 10.9547 129.555 10.784C129.214 10.6133 128.787 10.528 128.275 10.528C127.699 10.528 127.251 10.656 126.931 10.912C126.611 11.168 126.451 11.4987 126.451 11.904C126.451 12.1813 126.537 12.4373 126.707 12.672C126.899 12.9067 127.273 13.12 127.827 13.312C128.403 13.504 129.289 13.7173 130.483 13.952C131.955 14.1867 133.129 14.5707 134.003 15.104C134.878 15.616 135.497 16.224 135.859 16.928C136.222 17.6107 136.403 18.336 136.403 19.104C136.403 20.128 136.094 21.0347 135.475 21.824C134.878 22.6133 133.982 23.232 132.787 23.68C131.593 24.1067 130.142 24.32 128.435 24.32ZM140.075 24C139.84 24 139.648 23.9253 139.499 23.776C139.349 23.6267 139.275 23.4347 139.275 23.2V8.16C139.275 7.92533 139.349 7.73333 139.499 7.584C139.648 7.43467 139.84 7.36 140.075 7.36H143.851C144.064 7.36 144.245 7.43467 144.395 7.584C144.565 7.73333 144.651 7.92533 144.651 8.16V23.2C144.651 23.4347 144.565 23.6267 144.395 23.776C144.245 23.9253 144.064 24 143.851 24H140.075ZM140.043 4.96C139.808 4.96 139.616 4.88533 139.467 4.736C139.317 4.58667 139.243 4.39467 139.243 4.16V1.312C139.243 1.07733 139.317 0.885332 139.467 0.735998C139.616 0.565332 139.808 0.48 140.043 0.48H143.851C144.085 0.48 144.277 0.565332 144.427 0.735998C144.597 0.885332 144.683 1.07733 144.683 1.312V4.16C144.683 4.39467 144.597 4.58667 144.427 4.736C144.277 4.88533 144.085 4.96 143.851 4.96H140.043ZM150.2 24C149.965 24 149.773 23.9253 149.624 23.776C149.474 23.6267 149.4 23.4347 149.4 23.2V8.16C149.4 7.92533 149.474 7.73333 149.624 7.584C149.773 7.43467 149.965 7.36 150.2 7.36H153.88C154.114 7.36 154.306 7.43467 154.456 7.584C154.605 7.73333 154.68 7.92533 154.68 8.16V9.376C155.234 8.71467 155.96 8.16 156.856 7.712C157.752 7.264 158.808 7.04 160.024 7.04C161.261 7.04 162.349 7.31733 163.288 7.872C164.248 8.42667 164.994 9.248 165.528 10.336C166.082 11.4027 166.36 12.7147 166.36 14.272V23.2C166.36 23.4347 166.274 23.6267 166.104 23.776C165.954 23.9253 165.773 24 165.56 24H161.528C161.314 24 161.122 23.9253 160.952 23.776C160.802 23.6267 160.728 23.4347 160.728 23.2V14.464C160.728 13.4613 160.482 12.6933 159.992 12.16C159.522 11.6053 158.818 11.328 157.88 11.328C157.005 11.328 156.301 11.6053 155.768 12.16C155.256 12.6933 155 13.4613 155 14.464V23.2C155 23.4347 154.914 23.6267 154.744 23.776C154.594 23.9253 154.413 24 154.2 24H150.2ZM178.091 31.04C176.448 31.04 175.083 30.8267 173.995 30.4C172.928 29.9733 172.075 29.4613 171.435 28.864C170.816 28.2667 170.368 27.6693 170.091 27.072C169.814 26.496 169.664 26.0373 169.643 25.696C169.622 25.4613 169.696 25.2693 169.867 25.12C170.038 24.9707 170.24 24.896 170.475 24.896H174.539C174.731 24.896 174.891 24.9387 175.019 25.024C175.168 25.1307 175.286 25.3013 175.371 25.536C175.478 25.7707 175.616 26.016 175.787 26.272C175.979 26.528 176.235 26.7307 176.555 26.88C176.896 27.0507 177.355 27.136 177.931 27.136C178.571 27.136 179.104 27.0293 179.531 26.816C179.958 26.624 180.278 26.2933 180.491 25.824C180.704 25.376 180.811 24.768 180.811 24V21.856C180.32 22.3893 179.691 22.8267 178.923 23.168C178.155 23.488 177.227 23.648 176.139 23.648C175.051 23.648 174.091 23.488 173.259 23.168C172.427 22.848 171.734 22.368 171.179 21.728C170.624 21.088 170.187 20.3093 169.867 19.392C169.568 18.4747 169.387 17.4187 169.323 16.224C169.302 15.6693 169.302 15.1147 169.323 14.56C169.387 13.408 169.568 12.3733 169.867 11.456C170.166 10.5387 170.592 9.74933 171.147 9.088C171.723 8.42667 172.427 7.92533 173.259 7.584C174.091 7.22133 175.051 7.04 176.139 7.04C177.291 7.04 178.272 7.264 179.083 7.712C179.915 8.13867 180.598 8.68267 181.131 9.344V8.16C181.131 7.94667 181.206 7.76533 181.355 7.616C181.504 7.44533 181.696 7.36 181.931 7.36H185.611C185.846 7.36 186.038 7.44533 186.187 7.616C186.358 7.76533 186.443 7.94667 186.443 8.16V23.552C186.443 25.1733 186.112 26.5387 185.451 27.648C184.79 28.7573 183.84 29.6 182.603 30.176C181.366 30.752 179.862 31.04 178.091 31.04ZM177.867 19.488C178.55 19.488 179.104 19.3387 179.531 19.04C179.958 18.7413 180.267 18.3573 180.459 17.888C180.672 17.4187 180.79 16.9173 180.811 16.384C180.832 16.1493 180.843 15.8187 180.843 15.392C180.843 14.9653 180.832 14.6453 180.811 14.432C180.79 13.8773 180.672 13.3653 180.459 12.896C180.267 12.4267 179.958 12.0533 179.531 11.776C179.104 11.4773 178.55 11.328 177.867 11.328C177.163 11.328 176.598 11.4773 176.171 11.776C175.766 12.0747 175.467 12.48 175.275 12.992C175.104 13.504 174.998 14.0693 174.955 14.688C174.934 15.1573 174.934 15.6373 174.955 16.128C174.998 16.7467 175.104 17.312 175.275 17.824C175.467 18.336 175.766 18.7413 176.171 19.04C176.598 19.3387 177.163 19.488 177.867 19.488Z" fill="white"/>
<path d="M66.0207 45.2C65.3007 45.2 64.654 45.0667 64.0807 44.8C63.5207 44.52 63.074 44.1467 62.7407 43.68C62.4074 43.2133 62.2407 42.6867 62.2407 42.1C62.2407 41.1533 62.6274 40.4067 63.4007 39.86C64.174 39.3 65.2007 38.92 66.4807 38.72L68.9807 38.34V38.06C68.9807 37.58 68.8807 37.2133 68.6807 36.96C68.4807 36.7067 68.114 36.58 67.5807 36.58C67.2074 36.58 66.9007 36.6533 66.6607 36.8C66.434 36.9467 66.254 37.1467 66.1207 37.4C66.0007 37.5733 65.834 37.66 65.6207 37.66H63.3807C63.234 37.66 63.1207 37.62 63.0407 37.54C62.9607 37.4467 62.9274 37.34 62.9407 37.22C62.9407 36.98 63.0274 36.7067 63.2007 36.4C63.3874 36.08 63.6674 35.7667 64.0407 35.46C64.414 35.1533 64.894 34.9 65.4807 34.7C66.0674 34.5 66.774 34.4 67.6007 34.4C68.4674 34.4 69.2074 34.5 69.8207 34.7C70.434 34.9 70.9274 35.18 71.3007 35.54C71.6874 35.9 71.974 36.3267 72.1607 36.82C72.3474 37.3 72.4407 37.8333 72.4407 38.42V44.5C72.4407 44.6467 72.3874 44.7667 72.2807 44.86C72.1874 44.9533 72.074 45 71.9407 45H69.6207C69.474 45 69.354 44.9533 69.2607 44.86C69.1674 44.7667 69.1207 44.6467 69.1207 44.5V43.8C68.9474 44.0533 68.714 44.2867 68.4207 44.5C68.1274 44.7133 67.7807 44.88 67.3807 45C66.994 45.1333 66.5407 45.2 66.0207 45.2ZM66.9607 42.92C67.3474 42.92 67.694 42.84 68.0007 42.68C68.3207 42.5067 68.5674 42.2467 68.7407 41.9C68.9274 41.54 69.0207 41.0933 69.0207 40.56V40.28L67.3207 40.58C66.694 40.6867 66.234 40.8533 65.9407 41.08C65.6607 41.2933 65.5207 41.5467 65.5207 41.84C65.5207 42.0667 65.5874 42.26 65.7207 42.42C65.854 42.58 66.0274 42.7067 66.2407 42.8C66.454 42.88 66.694 42.92 66.9607 42.92ZM79.7976 49.4C78.7709 49.4 77.9176 49.2667 77.2376 49C76.5709 48.7333 76.0376 48.4133 75.6376 48.04C75.2509 47.6667 74.9709 47.2933 74.7976 46.92C74.6242 46.56 74.5309 46.2733 74.5176 46.06C74.5042 45.9133 74.5509 45.7933 74.6576 45.7C74.7642 45.6067 74.8909 45.56 75.0376 45.56H77.5776C77.6976 45.56 77.7976 45.5867 77.8776 45.64C77.9709 45.7067 78.0442 45.8133 78.0976 45.96C78.1642 46.1067 78.2509 46.26 78.3576 46.42C78.4776 46.58 78.6376 46.7067 78.8376 46.8C79.0509 46.9067 79.3376 46.96 79.6976 46.96C80.0976 46.96 80.4309 46.8933 80.6976 46.76C80.9642 46.64 81.1642 46.4333 81.2976 46.14C81.4309 45.86 81.4976 45.48 81.4976 45V43.66C81.1909 43.9933 80.7976 44.2667 80.3176 44.48C79.8376 44.68 79.2576 44.78 78.5776 44.78C77.8976 44.78 77.2976 44.68 76.7776 44.48C76.2576 44.28 75.8242 43.98 75.4776 43.58C75.1309 43.18 74.8576 42.6933 74.6576 42.12C74.4709 41.5467 74.3576 40.8867 74.3176 40.14C74.3042 39.7933 74.3042 39.4467 74.3176 39.1C74.3576 38.38 74.4709 37.7333 74.6576 37.16C74.8442 36.5867 75.1109 36.0933 75.4576 35.68C75.8176 35.2667 76.2576 34.9533 76.7776 34.74C77.2976 34.5133 77.8976 34.4 78.5776 34.4C79.2976 34.4 79.9109 34.54 80.4176 34.82C80.9376 35.0867 81.3642 35.4267 81.6976 35.84V35.1C81.6976 34.9667 81.7442 34.8533 81.8376 34.76C81.9309 34.6533 82.0509 34.6 82.1976 34.6H84.4976C84.6442 34.6 84.7642 34.6533 84.8576 34.76C84.9642 34.8533 85.0176 34.9667 85.0176 35.1V44.72C85.0176 45.7333 84.8109 46.5867 84.3976 47.28C83.9842 47.9733 83.3909 48.5 82.6176 48.86C81.8442 49.22 80.9042 49.4 79.7976 49.4ZM79.6576 42.18C80.0842 42.18 80.4309 42.0867 80.6976 41.9C80.9642 41.7133 81.1576 41.4733 81.2776 41.18C81.4109 40.8867 81.4842 40.5733 81.4976 40.24C81.5109 40.0933 81.5176 39.8867 81.5176 39.62C81.5176 39.3533 81.5109 39.1533 81.4976 39.02C81.4842 38.6733 81.4109 38.3533 81.2776 38.06C81.1576 37.7667 80.9642 37.5333 80.6976 37.36C80.4309 37.1733 80.0842 37.08 79.6576 37.08C79.2176 37.08 78.8642 37.1733 78.5976 37.36C78.3442 37.5467 78.1576 37.8 78.0376 38.12C77.9309 38.44 77.8642 38.7933 77.8376 39.18C77.8242 39.4733 77.8242 39.7733 77.8376 40.08C77.8642 40.4667 77.9309 40.82 78.0376 41.14C78.1576 41.46 78.3442 41.7133 78.5976 41.9C78.8642 42.0867 79.2176 42.18 79.6576 42.18ZM92.1734 45.2C90.6 45.2 89.3467 44.7733 88.4134 43.92C87.48 43.0667 86.9934 41.8 86.9534 40.12C86.9534 40.0267 86.9534 39.9067 86.9534 39.76C86.9534 39.6133 86.9534 39.5 86.9534 39.42C86.9934 38.3667 87.2267 37.4667 87.6534 36.72C88.0934 35.96 88.6934 35.3867 89.4534 35C90.2267 34.6 91.1267 34.4 92.1534 34.4C93.3267 34.4 94.2934 34.6333 95.0534 35.1C95.8267 35.5667 96.4067 36.2 96.7934 37C97.18 37.8 97.3734 38.7133 97.3734 39.74V40.22C97.3734 40.3667 97.32 40.4867 97.2134 40.58C97.12 40.6733 97.0067 40.72 96.8734 40.72H90.4734C90.4734 40.7333 90.4734 40.7533 90.4734 40.78C90.4734 40.8067 90.4734 40.8333 90.4734 40.86C90.4867 41.2467 90.5534 41.6 90.6734 41.92C90.7934 42.24 90.98 42.4933 91.2334 42.68C91.4867 42.8667 91.7934 42.96 92.1534 42.96C92.42 42.96 92.64 42.92 92.8134 42.84C93 42.7467 93.1534 42.6467 93.2734 42.54C93.3934 42.42 93.4867 42.32 93.5534 42.24C93.6734 42.1067 93.7667 42.0267 93.8334 42C93.9134 41.96 94.0334 41.94 94.1934 41.94H96.6734C96.8067 41.94 96.9134 41.98 96.9934 42.06C97.0867 42.1267 97.1267 42.2267 97.1134 42.36C97.1 42.5867 96.9867 42.86 96.7734 43.18C96.56 43.5 96.2467 43.82 95.8334 44.14C95.4334 44.4467 94.9267 44.7 94.3134 44.9C93.7 45.1 92.9867 45.2 92.1734 45.2ZM90.4734 38.74H93.8534V38.7C93.8534 38.2733 93.7867 37.9 93.6534 37.58C93.5334 37.26 93.34 37.0133 93.0734 36.84C92.82 36.6667 92.5134 36.58 92.1534 36.58C91.7934 36.58 91.4867 36.6667 91.2334 36.84C90.9934 37.0133 90.8067 37.26 90.6734 37.58C90.54 37.9 90.4734 38.2733 90.4734 38.7V38.74ZM99.7484 45C99.6017 45 99.4817 44.9533 99.3884 44.86C99.295 44.7667 99.2484 44.6467 99.2484 44.5V35.1C99.2484 34.9533 99.295 34.8333 99.3884 34.74C99.4817 34.6467 99.6017 34.6 99.7484 34.6H102.048C102.195 34.6 102.315 34.6467 102.408 34.74C102.502 34.8333 102.548 34.9533 102.548 35.1V35.86C102.895 35.4467 103.348 35.1 103.908 34.82C104.468 34.54 105.128 34.4 105.888 34.4C106.662 34.4 107.342 34.5733 107.928 34.92C108.528 35.2667 108.995 35.78 109.328 36.46C109.675 37.1267 109.848 37.9467 109.848 38.92V44.5C109.848 44.6467 109.795 44.7667 109.688 44.86C109.595 44.9533 109.482 45 109.348 45H106.828C106.695 45 106.575 44.9533 106.468 44.86C106.375 44.7667 106.328 44.6467 106.328 44.5V39.04C106.328 38.4133 106.175 37.9333 105.868 37.6C105.575 37.2533 105.135 37.08 104.548 37.08C104.002 37.08 103.562 37.2533 103.228 37.6C102.908 37.9333 102.748 38.4133 102.748 39.04V44.5C102.748 44.6467 102.695 44.7667 102.588 44.86C102.495 44.9533 102.382 45 102.248 45H99.7484ZM116.86 45.2C115.874 45.2 115 45.02 114.24 44.66C113.48 44.3 112.874 43.78 112.42 43.1C111.98 42.4067 111.74 41.58 111.7 40.62C111.687 40.4067 111.68 40.14 111.68 39.82C111.68 39.4867 111.687 39.2133 111.7 39C111.74 38.0267 111.98 37.2 112.42 36.52C112.86 35.8267 113.46 35.3 114.22 34.94C114.994 34.58 115.874 34.4 116.86 34.4C117.78 34.4 118.567 34.5333 119.22 34.8C119.874 35.0533 120.407 35.3733 120.82 35.76C121.234 36.1467 121.54 36.5467 121.74 36.96C121.954 37.36 122.067 37.7133 122.08 38.02C122.094 38.1533 122.047 38.2733 121.94 38.38C121.834 38.4733 121.714 38.52 121.58 38.52H119.04C118.894 38.52 118.78 38.4867 118.7 38.42C118.62 38.3533 118.547 38.2533 118.48 38.12C118.32 37.7067 118.114 37.4133 117.86 37.24C117.62 37.0667 117.307 36.98 116.92 36.98C116.387 36.98 115.974 37.1533 115.68 37.5C115.4 37.8467 115.247 38.38 115.22 39.1C115.207 39.6333 115.207 40.1067 115.22 40.52C115.247 41.2533 115.4 41.7867 115.68 42.12C115.974 42.4533 116.387 42.62 116.92 42.62C117.334 42.62 117.66 42.5333 117.9 42.36C118.14 42.1867 118.334 41.8933 118.48 41.48C118.547 41.3467 118.62 41.2467 118.7 41.18C118.78 41.1133 118.894 41.08 119.04 41.08H121.58C121.714 41.08 121.834 41.1333 121.94 41.24C122.047 41.3333 122.094 41.4467 122.08 41.58C122.067 41.8067 122 42.0733 121.88 42.38C121.76 42.6733 121.574 42.9867 121.32 43.32C121.067 43.6533 120.734 43.9667 120.32 44.26C119.92 44.54 119.434 44.7667 118.86 44.94C118.287 45.1133 117.62 45.2 116.86 45.2ZM125.466 48.8C125.346 48.8 125.246 48.76 125.166 48.68C125.086 48.6 125.046 48.5 125.046 48.38C125.046 48.3533 125.046 48.3133 125.046 48.26C125.059 48.22 125.079 48.1733 125.106 48.12L126.666 44.36L122.826 35.28C122.786 35.1867 122.766 35.1067 122.766 35.04C122.792 34.92 122.846 34.82 122.926 34.74C123.006 34.6467 123.106 34.6 123.226 34.6H125.506C125.679 34.6 125.806 34.6467 125.886 34.74C125.979 34.82 126.039 34.9133 126.066 35.02L128.366 40.84L130.706 35.02C130.759 34.9133 130.826 34.82 130.906 34.74C130.999 34.6467 131.132 34.6 131.306 34.6H133.546C133.666 34.6 133.766 34.6467 133.846 34.74C133.939 34.82 133.986 34.9133 133.986 35.02C133.986 35.0867 133.966 35.1733 133.926 35.28L128.266 48.38C128.226 48.4867 128.159 48.58 128.066 48.66C127.972 48.7533 127.839 48.8 127.666 48.8H125.466Z" fill="#313131"/>
</svg>
